<svg id="Logo" xmlns="http://www.w3.org/2000/svg" viewBox="0 0 1156.43 988">
    <defs>
        <style>.cls-1{fill:#fff;stroke:#fff;stroke-miterlimit:10;stroke-width:5px;}</style>
    </defs>
    <g id="Group">
        <g id="Book">
            <g id="Left">
                <path class="cls-1" d="M139.64,875.36A485.42,485.42,0,0,1,561.45,905Q538.38,627.17,515.3,349.3A465.19,465.19,0,0,0,90.18,310.05Z" transform="translate(2.7 2.5)"/>
                <path class="cls-1" d="M0,406.71l48.82,558c.36,4.21,1.59,10.31,6.18,14.26,12.2,10.52,38.89-2.21,48.73-6.73,70.2-32.28,155.54-48.35,177.88-52.55,39.81-7.5,72.89-8.28,102.78-9a814.83,814.83,0,0,1,99,3.68,527.47,527.47,0,0,0-91.09-26.56c-123.51-24.16-229.06,1.46-291.44,23L56.07,399.34Z" transform="translate(2.7 2.5)"/>
            </g>
            <g id="Right">
                <path class="cls-1" d="M1011.39,875.36A485.42,485.42,0,0,0,589.58,905q23.08-277.87,46.16-555.74a465.17,465.17,0,0,1,425.11-39.25Z" transform="translate(2.7 2.5)"/>
                <path class="cls-1" d="M1151,406.71l-48.81,558c-.37,4.21-1.6,10.31-6.18,14.26-12.21,10.52-38.89-2.21-48.73-6.73-70.2-32.28-155.55-48.35-177.89-52.55-39.81-7.5-72.89-8.28-102.78-9a814.92,814.92,0,0,0-99,3.68,527.33,527.33,0,0,1,91.1-26.56c123.51-24.16,229.05,1.46,291.43,23L1095,399.34Z" transform="translate(2.7 2.5)"/>
            </g>
        </g>
        <path id="Halo" class="cls-1" d="M575.52,93.29c-56.78,0-117.89-14.59-117.89-46.64S518.74,0,575.52,0,693.4,14.6,693.4,46.65,632.29,93.29,575.52,93.29ZM483.18,46.65c3.1,6.35,33.66,21.2,92.34,21.2S664.75,53,667.86,46.65c-3.11-6.36-33.67-21.21-92.34-21.21S486.28,40.29,483.18,46.65Z" transform="translate(2.7 2.5)"/>
        <path id="Head" class="cls-1" d="M575.52,108.56c-33.47,0-68.42-5.08-91.5-15.8a117.89,117.89,0,1,0,183,0C643.93,103.48,609,108.56,575.52,108.56Z" transform="translate(2.7 2.5)"/>
    </g>
</svg>